<?xml version="1.0" encoding="utf-8"?>
<!-- Generator: Adobe Illustrator 15.0.0, SVG Export Plug-In . SVG Version: 6.00 Build 0)  -->
<!DOCTYPE svg PUBLIC "-//W3C//DTD SVG 1.1//EN" "http://www.w3.org/Graphics/SVG/1.1/DTD/svg11.dtd">
<svg version="1.1" id="图层_1" xmlns="http://www.w3.org/2000/svg" xmlns:xlink="http://www.w3.org/1999/xlink" x="0px" y="0px"
	 width="841.89px" height="595.28px" viewBox="0 0 841.89 595.28" enable-background="new 0 0 841.89 595.28" xml:space="preserve">
<g>
	<path fill="#FF0000" stroke="#FFFF00" d="M330.802,238.854h39.938l4.219-4.219l5.906,5.906h-24.188
		c-0.189,5.063-0.563,11.531-1.125,19.406h19.406l4.781-4.781l6.469,6.469h-27c3.186,9.751,7.405,16.875,12.656,21.375
		c5.247,4.5,10.78,7.313,16.594,8.438v1.125c-3.19,0.185-5.344,1.499-6.469,3.938c-7.69-4.315-13.456-9.936-17.297-16.875
		c-3.845-6.935-6.144-12.938-6.891-18h-2.531c-1.688,9.751-5.3,17.534-10.828,23.344c-5.533,5.814-12.142,10.217-19.828,13.219
		l-0.563-0.844c7.686-4.126,13.733-9.044,18.141-14.766c4.403-5.717,7.356-12.7,8.859-20.953h-17.438
		c-2.439,0-4.689,0.281-6.75,0.844l-2.531-2.531h27c0.563-8.622,0.844-15.091,0.844-19.406h-12.094c-2.439,0-4.689,0.281-6.75,0.844
		L330.802,238.854z"/>
	<path fill="#FF0000" stroke="#FFFF00" d="M409.271,282.729l11.25-3.938l0.281,1.406c-13.5,5.814-21.094,9.844-22.781,12.094
		l-3.375-5.063c2.25-0.563,5.81-1.688,10.688-3.375v-25.313h-1.125c-2.439,0-4.689,0.281-6.75,0.844l-2.531-2.531h10.406v-12.938
		c0-2.624-0.097-5.81-0.281-9.563l6.469,3.094l-2.25,1.969v17.438h2.813l3.094-3.094l4.781,4.781h-10.688V282.729z M440.771,274.01
		c4.5,0.563,7.031,0.751,7.594,0.563c0.563-0.185,0.844-0.844,0.844-1.969v-20.531l-10.125,3.938
		c0,12.375,0.092,21.094,0.281,26.156l-4.219,1.969c0.184-6.561,0.281-15.469,0.281-26.719l-8.719,3.375v27.281
		c0,2.25,1.217,3.375,3.656,3.375h21.375c2.061-0.374,3.234-1.872,3.516-4.5c0.281-2.624,0.422-5.717,0.422-9.281h1.406
		c0.184,3.753,0.465,6.565,0.844,8.438c0.373,1.876,1.406,3.19,3.094,3.938c-1.504,3.186-3.656,4.781-6.469,4.781h-25.594
		c-3.938,0-5.906-2.158-5.906-6.469v-26.438l-6.188,2.25l-1.688,1.406l-2.813-1.406l10.688-3.938v-10.125
		c0-2.435-0.098-5.344-0.281-8.719l5.906,3.094l-1.969,1.688v12.938l8.719-3.375v-13.5c0-3.375-0.098-6.561-0.281-9.563l6.469,2.813
		l-2.531,2.25v16.594l9.281-3.938l2.25-2.813l4.5,3.375l-2.25,2.25v21.375c0,1.125-0.422,2.206-1.266,3.234
		c-0.844,1.033-2.109,1.925-3.797,2.672c-0.189-2.061-2.531-3.841-7.031-5.344V274.01z"/>
	<path fill="#FF0000" stroke="#FFFF00" d="M502.928,236.042l-2.813,1.688c2.813,4.5,7.074,8.815,12.797,12.938
		c5.717,4.126,12.326,6.75,19.828,7.875v1.125c-3.375,0.378-5.441,1.595-6.188,3.656c-4.316-1.499-8.957-4.263-13.922-8.297
		c-4.971-4.03-9.52-9.325-13.641-15.891c-3.754,6.003-8.297,11.487-13.641,16.453c-5.344,4.97-11.391,9.141-18.141,12.516
		l-0.844-0.844c6.371-3.56,12.375-8.578,18-15.047s9.844-13.263,12.656-20.391L502.928,236.042z M481.271,292.292
		c5.809-0.189,16.967-0.563,33.469-1.125c-2.439-3.186-5.814-6.653-10.125-10.406l0.844-0.844
		c6.371,3.753,11.061,6.847,14.063,9.281c2.996,2.435,3.84,4.825,2.531,7.172c-1.314,2.342-2.348,2.764-3.094,1.266
		c-0.752-1.503-1.785-3.19-3.094-5.063c-9.189,0.936-17.064,1.828-23.625,2.672c-6.566,0.844-10.877,1.731-12.938,2.672
		l-2.813-5.625c2.813-0.563,6.09-3.327,9.844-8.297c3.748-4.966,5.998-8.578,6.75-10.828h-12.938c-2.439,0-4.689,0.281-6.75,0.844
		l-2.531-2.531h48.656l3.938-3.938l5.625,5.625h-33.188l3.938,2.813l-2.531,0.844C490.926,284.513,485.582,289.668,481.271,292.292z
		 M481.553,259.385h25.594l3.375-3.375l5.063,5.063h-25.031c-2.25,0-4.408,0.281-6.469,0.844L481.553,259.385z"/>
</g>
<path fill="#80C41C" d="M612,360H250V188h362V360z M253,357h356V191H253V357z"/>
</svg>
